# xmcd
#
# Track frame offsets:
#	150
#	70577
#	154337
#	193505
#
# Disc length: 3413 seconds
# Revision: 0
# Processed by: cddbd v1.5.2PL0 Copyright (c) Steve Scherf et al.
# Submitted via: dBpowerAMP V12.0
#
DISCID=2d0d5304
DTITLE=Stanislaw Skrowaczewski: Saarbrucken Radio Symphony Orchestra - Bruckner Symphony No. 6 in A major (WAB 106)
DYEAR=1997
DGENRE=Classical
TTITLE0=I. Maestoso
TTITLE1=II. Adagio. Sehr feierlich
TTITLE2=III. Scherzo: Nicht schnell - Trio: Langsam
TTITLE3=IV. Finale: Bewegt, doch nicht zu schnell
EXTD=
EXTT0=
EXTT1=
EXTT2=
EXTT3=
PLAYORDER=
